<?xml version="1.0" encoding="UTF-8" standalone="no"?>
<!-- Created with Inkscape (http://www.inkscape.org/) -->

<svg
   width="200mm"
   height="200mm"
   viewBox="0 0 200 200"
   version="1.1"
   id="svg5"
   xml:space="preserve"
   inkscape:export-filename="uw-crest-color-web-digital_resized.png"
   inkscape:export-xdpi="25.4"
   inkscape:export-ydpi="25.4"
   inkscape:version="1.2.1 (9c6d41e, 2022-07-14)"
   sodipodi:docname="uw_logo.svg"
   xmlns:inkscape="http://www.inkscape.org/namespaces/inkscape"
   xmlns:sodipodi="http://sodipodi.sourceforge.net/DTD/sodipodi-0.dtd"
   xmlns="http://www.w3.org/2000/svg"
   xmlns:svg="http://www.w3.org/2000/svg"><sodipodi:namedview
     id="namedview7"
     pagecolor="#ffffff"
     bordercolor="#666666"
     borderopacity="1.0"
     inkscape:showpageshadow="2"
     inkscape:pageopacity="0.0"
     inkscape:pagecheckerboard="0"
     inkscape:deskcolor="#d1d1d1"
     inkscape:document-units="mm"
     showgrid="false"
     inkscape:zoom="0.77196318"
     inkscape:cx="363.3593"
     inkscape:cy="163.22022"
     inkscape:window-width="1344"
     inkscape:window-height="760"
     inkscape:window-x="0"
     inkscape:window-y="205"
     inkscape:window-maximized="0"
     inkscape:current-layer="layer1" /><defs
     id="defs2"><style
       id="style277">.cls-1{fill:url(#Web_Shield_blend);}.cls-2{fill:#282728;}.cls-3{fill:#c5050c;}.cls-4{fill:#fff;}</style><radialGradient
       id="Web_Shield_blend"
       cx="0.88999999"
       cy="17.74"
       r="33.439999"
       gradientTransform="matrix(1.09,0,0,1.09,27.04,24.74)"
       gradientUnits="userSpaceOnUse"><stop
         offset="0.17"
         stop-color="#fff"
         id="stop279" /><stop
         offset="0.3"
         stop-color="#f6ede4"
         id="stop281" /><stop
         offset="0.69"
         stop-color="#debe9b"
         id="stop283" /><stop
         offset="0.87"
         stop-color="#d4ac7f"
         id="stop285" /></radialGradient></defs><g
     inkscape:label="Layer 1"
     inkscape:groupmode="layer"
     id="layer1"><rect
       style="fill:#ffffff;fill-rule:evenodd;stroke-width:1.6703"
       id="rect483"
       width="200"
       height="200"
       x="0"
       y="-7.1054274e-15" /><g
       id="g313"
       transform="matrix(2.2753201,0,0,2.2753201,36.902324,0.69722974)"><path
         class="cls-1"
         d="M 28,87.36 A 3.78,3.78 0 0 1 26.95,86.2 L 26.89,86.11 H 26.78 C 8.65,81.86 -1.45,54 0.83,31.71 A 47.71,47.71 0 0 1 2.12,24.46 35.39,35.39 0 0 1 4.45,18.07 23.55,23.55 0 0 1 8.2,12.42 14.7,14.7 0 0 1 19,7.28 0.33,0.33 0 0 0 19.33,7 5.49,5.49 0 0 1 23.21,4.4 H 23.4 V 4.21 A 4.69,4.69 0 0 1 28,0.64 4.76,4.76 0 0 1 32.56,4.18 v 0.19 h 0.19 a 5.51,5.51 0 0 1 3.92,2.63 0.32,0.32 0 0 0 0.37,0.26 14.7,14.7 0 0 1 10.77,5.13 24,24 0 0 1 4.24,6.71 l 0.23,0.55 a 42.56,42.56 0 0 1 2.89,12 C 57.45,54 47.35,81.86 29.23,86.08 h -0.11 l -0.06,0.09 A 3.78,3.78 0 0 1 28,87.36 Z"
         transform="translate(-0.25,-0.36)"
         id="path292"
         style="fill:url(#Web_Shield_blend)" /><path
         class="cls-2"
         d="m 55.43,31.68 a 49.49,49.49 0 0 0 -0.86,-5.5 39.81,39.81 0 0 0 -1.39,-4.93 31.29,31.29 0 0 0 -2.23,-4.93 22.63,22.63 0 0 0 -3,-4.1 A 14.94,14.94 0 0 0 37,7 H 36.94 A 5.77,5.77 0 0 0 32.78,4.09 4.93,4.93 0 0 0 23.22,4.09 5.77,5.77 0 0 0 19.06,7 H 19 a 14.94,14.94 0 0 0 -11,5.23 22.63,22.63 0 0 0 -3,4.1 31.29,31.29 0 0 0 -2.23,4.93 39.81,39.81 0 0 0 -1.39,4.93 49.49,49.49 0 0 0 -0.86,5.5 C -1.73,54.3 8.44,82.1 26.73,86.36 A 3.17,3.17 0 0 0 28,87.64 3.17,3.17 0 0 0 29.27,86.36 C 47.56,82.1 57.73,54.3 55.43,31.68 Z M 28,1.23 A 3.9,3.9 0 0 1 31.93,4 4.86,4.86 0 0 0 28.07,6.47 0.17,0.17 0 0 1 28,6.56 0.15,0.15 0 0 1 27.93,6.47 4.86,4.86 0 0 0 24.07,4 3.9,3.9 0 0 1 28,1.23 Z M 26.14,5.52 A 3.51,3.51 0 0 1 27.73,7.63 0.46,0.46 0 0 0 28,8 a 0.46,0.46 0 0 0 0.27,-0.42 3.51,3.51 0 0 1 1.59,-2.11 4.19,4.19 0 0 1 6,1.58 13.38,13.38 0 0 0 -1.67,0.42 6.6,6.6 0 0 0 -2.38,1.32 9.4,9.4 0 0 0 -3,6.1 c -0.67,7.31 7.72,6.16 8.14,6.13 1.08,0 1.9,-1.71 1.9,-4 0,-2.29 -0.84,-4 -1.9,-4 -0.65,0 -1.77,0.52 -1.88,2.55 -0.07,1.53 0.63,3.43 1.53,3.54 0.47,0.06 0.89,-0.76 1,-1.6 0.11,-0.84 0.06,-1.87 -0.59,-2 A 0.38,0.38 0 0 0 36.55,15.79 3.83,3.83 0 0 1 37,17.1 c 0,1.25 -1.28,0.63 -1.12,-1.36 0.12,-1.74 1.01,-1.65 1.05,-1.65 0.5,0 1.26,1 1.26,3 0,1.75 -0.84,3.63 -2.46,2.65 -1.36,-1 -1.89,-3.28 -1.52,-5 0.17,-0.81 0.87,-3 3.13,-3 3.26,0 6.3,1.71 8.72,4.9 -0.27,0.85 -1.95,4.1 -7.28,7.21 L 38.49,24 A 11,11 0 0 0 33.56,23 27.07,27.07 0 0 0 28.92,23.74 4.09,4.09 0 0 1 28,23.89 v 0 A 4.09,4.09 0 0 1 27.08,23.74 27.07,27.07 0 0 0 22.44,23 11,11 0 0 0 17.51,24 l -0.29,-0.15 c -5.34,-3.11 -7,-6.36 -7.28,-7.21 2.42,-3.19 5.46,-4.9 8.72,-4.9 2.26,0 3,2.21 3.13,3 0.38,1.77 -0.16,4.05 -1.52,5 -1.61,1 -2.46,-0.9 -2.46,-2.65 0,-2 0.76,-3 1.26,-3 0,0 0.94,-0.11 1.09,1.65 0.17,2 -1.09,2.61 -1.12,1.36 A 3.83,3.83 0 0 1 19.43,15.76 0.38,0.38 0 0 0 19,15.48 c -0.65,0.16 -0.71,1.3 -0.59,2 0.12,0.7 0.56,1.66 1,1.6 0.9,-0.12 1.6,-2 1.52,-3.44 -0.1,-2 -1.23,-2.55 -1.88,-2.55 -1.06,0 -1.9,1.71 -1.9,4 0,2.29 0.82,4 1.9,4 0.42,0 8.81,1.18 8.14,-6.13 a 9.4,9.4 0 0 0 -3,-6.1 A 6.6,6.6 0 0 0 21.81,7.54 13.38,13.38 0 0 0 20.1,7.1 4.19,4.19 0 0 1 26.14,5.52 Z M 10.28,36.18 A 32.49,32.49 0 0 0 10,39.49 44.42,44.42 0 0 0 12,54.74 49.48,49.48 0 0 0 16.13,64.06 11.48,11.48 0 0 1 11,66.39 66.66,66.66 0 0 1 4.53,34.57 16.13,16.13 0 0 0 10.28,36.18 Z M 4.56,34 c 0.44,-7.31 2.29,-13.05 5,-16.87 0.48,1.24 2.57,4.35 7.39,7.18 -4.1,2.47 -6,7.56 -6.58,11.36 A 15.81,15.81 0 0 1 4.56,34 Z m 11.85,30.53 c 3.08,5.3 6.12,8.46 8.45,10.13 A 11.54,11.54 0 0 1 21.32,79 c -4,-2.7 -7.4,-7 -10.07,-12.13 a 11.81,11.81 0 0 0 5.16,-2.34 z M 25.33,75 A 12.2,12.2 0 0 0 28,76.46 12.2,12.2 0 0 0 30.67,75 a 12,12 0 0 0 3.53,4.34 18.69,18.69 0 0 1 -3.58,1.78 c 0,0 0,-0.09 0,-0.13 -0.26,-1.32 -2,-1.59 -2.61,-1.59 -0.61,0 -2.35,0.27 -2.61,1.59 0,0 0,0.09 0,0.13 A 18.69,18.69 0 0 1 21.82,79.34 12,12 0 0 0 25.33,75 Z m 5.81,-0.32 c 2.33,-1.67 5.37,-4.83 8.45,-10.13 a 11.81,11.81 0 0 0 5.16,2.36 C 42.08,72 38.69,76.32 34.68,79 A 11.54,11.54 0 0 1 31.14,74.66 Z M 39.86,64.07 A 49.48,49.48 0 0 0 44,54.73 44.1,44.1 0 0 0 45.66,47.41 44.34,44.34 0 0 0 46,39.49 32.49,32.49 0 0 0 45.68,36.18 16.13,16.13 0 0 0 51.43,34.57 66.66,66.66 0 0 1 45,66.39 11.48,11.48 0 0 1 39.86,64.05 Z m 5.78,-28.4 c -0.62,-3.8 -2.5,-8.8 -6.58,-11.36 4.82,-2.83 6.92,-5.94 7.39,-7.18 2.69,3.82 4.55,9.56 5,16.87 a 15.81,15.81 0 0 1 -5.81,1.65 z M 25,84.76 A 23.29,23.29 0 0 1 19.13,81.83 27.5,27.5 0 0 1 15.88,79.21 31.1,31.1 0 0 1 13.53,76.74 Q 12.77,75.86 12.07,74.93 A 47.49,47.49 0 0 1 6.49,65.24 63.9,63.9 0 0 1 3.09,55 70.46,70.46 0 0 1 1.3,44.19 64.57,64.57 0 0 1 1.23,33.35 C 1.4,31.43 1.63,29.5 2,27.59 A 39.32,39.32 0 0 1 3.4,22 31,31 0 0 1 5.5,17.14 20.93,20.93 0 0 1 8.65,12.7 a 16.19,16.19 0 0 1 4,-3.1 13.93,13.93 0 0 1 1.93,-0.87 q 0.51,-0.18 1,-0.32 a 8.82,8.82 0 0 1 1,-0.26 14,14 0 0 1 2.56,-0.21 7.58,7.58 0 0 1 3.88,1 8,8 0 0 1 3.34,6 c 0.39,4.52 -4.21,5.23 -5.11,5.22 -0.14,0 -0.21,-0.13 0.24,-0.59 a 6.53,6.53 0 0 0 1,-5.1 c -0.44,-2.07 -1.9,-3.69 -4,-3.69 A 11.16,11.16 0 0 0 10.37,14.67 22.78,22.78 0 0 0 6,22.61 42.69,42.69 0 0 0 3.76,34 62.43,62.43 0 0 0 4,44.63 a 68.71,68.71 0 0 0 1.94,10.59 60.82,60.82 0 0 0 3.53,9.85 43.36,43.36 0 0 0 5.48,9 25.89,25.89 0 0 0 8.13,6.93 18.15,18.15 0 0 0 2.21,1 6.71,6.71 0 0 0 0.71,3 6.63,6.63 0 0 1 -1,-0.24 z m 3.29,1.55 a 0.6,0.6 0 0 1 -0.31,0.21 0.6,0.6 0 0 1 -0.31,-0.21 6.49,6.49 0 0 1 -1.51,-5.17 c 0.12,-0.64 1.2,-0.93 1.82,-0.94 0.62,-0.01 1.7,0.3 1.82,0.94 A 6.49,6.49 0 0 1 28.31,86.3 Z M 54.7,44.19 A 70.46,70.46 0 0 1 52.91,55 63.9,63.9 0 0 1 49.49,65.2 47.49,47.49 0 0 1 43.91,74.89 q -0.7,0.93 -1.46,1.81 A 31.1,31.1 0 0 1 40.1,79.17 27.5,27.5 0 0 1 36.85,81.79 23.29,23.29 0 0 1 31,84.76 6.63,6.63 0 0 1 30,85 a 6.71,6.71 0 0 0 0.67,-3.1 18.15,18.15 0 0 0 2.21,-1 25.89,25.89 0 0 0 8.13,-6.87 43.36,43.36 0 0 0 5.48,-9 60.82,60.82 0 0 0 3.53,-9.85 A 68.71,68.71 0 0 0 52,44.63 62.43,62.43 0 0 0 52.24,34 42.69,42.69 0 0 0 50,22.61 22.78,22.78 0 0 0 45.53,14.74 11.16,11.16 0 0 0 37.41,10.85 c -2.12,0 -3.58,1.62 -4,3.69 a 6.53,6.53 0 0 0 1,5.1 c 0.45,0.46 0.38,0.59 0.24,0.59 -0.9,0 -5.51,-0.71 -5.11,-5.22 a 8,8 0 0 1 3.34,-6 7.58,7.58 0 0 1 3.88,-1 14,14 0 0 1 2.56,0.21 8.77,8.77 0 0 1 1,0.26 q 0.52,0.14 1,0.32 a 13.93,13.93 0 0 1 1.93,0.87 16.19,16.19 0 0 1 4,3.1 20.93,20.93 0 0 1 3.15,4.44 31,31 0 0 1 2.2,4.79 39.32,39.32 0 0 1 1.4,5.59 c 0.35,1.91 0.58,3.84 0.74,5.77 A 64.57,64.57 0 0 1 54.7,44.19 Z"
         transform="translate(-0.25,-0.36)"
         id="path294" /><path
         class="cls-3"
         d="M 45,39.63 C 44.89,36.94 44.1,28.73 38.52,25.17 A 9.41,9.41 0 0 0 34.18,24 c -2.74,-0.18 -4.77,0.87 -6.14,0.91 H 28 c -1.37,0 -3.42,-1.09 -6.16,-0.91 a 9.35,9.35 0 0 0 -4.37,1.21 C 11.85,28.73 11.07,36.94 11,39.63 a 43.52,43.52 0 0 0 3.54,19 c 3.82,8.49 8.46,14.51 13.09,16.56 l 0.37,0.16 0.37,-0.16 c 4.61,-2 9.27,-8.06 13.14,-16.57 A 43.53,43.53 0 0 0 45,39.63 Z"
         transform="translate(-0.25,-0.36)"
         id="path296" /><path
         class="cls-4"
         d="M 36.3,33.18 V 35 h 0.37 0.18 a 1.17,1.17 0 0 1 0.82,0.28 1.27,1.27 0 0 1 0.21,1.11 c 0,0 -3.74,16.19 -4.45,19.27 -0.82,-3.9 -5.26,-25.18 -5.26,-25.18 v -0.09 h -0.9 v 0.1 L 23.4,55.32 19,36.37 a 2.7,2.7 0 0 1 0,-0.28 1.27,1.27 0 0 1 0.31,-1 1,1 0 0 1 0.69,-0.17 h 0.37 v -1.8 h -6.24 v 1.76 h 0.28 a 1.16,1.16 0 0 1 0.95,0.83 L 23,68.48 v 0.09 h 1.1 v -0.1 l 3.56,-23.3 4.53,23.31 v 0.09 h 1 l 7.25,-32.78 a 1,1 0 0 1 1,-0.75 h 0.07 0.36 v -1.86 z"
         transform="translate(-0.25,-0.36)"
         id="path298" /></g></g></svg>
